<svg xmlns="http://www.w3.org/2000/svg" xmlns:xlink="http://www.w3.org/1999/xlink" width="500" zoomAndPan="magnify" viewBox="0 0 375 374.999991" height="500" preserveAspectRatio="xMidYMid meet" version="1.0"><defs><g/></defs><g fill="#000000" fill-opacity="1"><g transform="translate(104.667341, 292.948116)"><g><path d="M 6.875 0 C 6.164062 0 5.8125 -0.878906 5.8125 -2.640625 L 5.8125 -4.21875 C 5.8125 -4.925781 6.164062 -5.28125 6.875 -5.28125 C 7.394531 -5.28125 8.226562 -5.367188 9.375 -5.546875 C 10.519531 -5.722656 11.707031 -5.898438 12.9375 -6.078125 C 14.175781 -6.253906 15.320312 -6.453125 16.375 -6.671875 C 17.4375 -6.890625 18.1875 -7.039062 18.625 -7.125 C 27.601562 -9.15625 32.09375 -14.265625 32.09375 -22.453125 L 32.09375 -161.921875 C 32.09375 -169.492188 29.054688 -174.863281 22.984375 -178.03125 C 19.367188 -179.96875 15.492188 -180.9375 11.359375 -180.9375 L 6.34375 -180.9375 C 5.632812 -180.9375 5.28125 -181.289062 5.28125 -182 L 5.28125 -185.171875 C 5.28125 -185.867188 5.8125 -186.21875 6.875 -186.21875 L 79.375 -188.203125 L 92.71875 -188.203125 C 108.300781 -187.148438 121.351562 -181.492188 131.875 -171.234375 C 142.394531 -160.972656 147.65625 -148.335938 147.65625 -133.328125 C 147.65625 -118.316406 141.40625 -106.628906 128.90625 -98.265625 C 125.03125 -95.710938 120.847656 -93.421875 116.359375 -91.390625 L 156.375 -26.015625 C 163.332031 -14.566406 172.664062 -6.507812 184.375 -1.84375 C 185.34375 -1.582031 185.828125 -0.96875 185.828125 0 C 185.828125 2.195312 184.375 3.296875 181.46875 3.296875 C 161.65625 3.296875 145.894531 -4.226562 134.1875 -19.28125 C 131.632812 -22.625 129.082031 -26.367188 126.53125 -30.515625 L 92.3125 -84.125 L 60.890625 -85.578125 L 59.828125 -85.578125 C 58.503906 -85.578125 57.84375 -84.960938 57.84375 -83.734375 L 57.84375 -22.84375 C 57.84375 -18 59.207031 -14.390625 61.9375 -12.015625 C 64.664062 -9.640625 69.378906 -8.007812 76.078125 -7.125 C 77.835938 -6.863281 79.992188 -6.488281 82.546875 -6 C 85.097656 -5.519531 86.835938 -5.28125 87.765625 -5.28125 C 88.691406 -5.28125 89.15625 -4.925781 89.15625 -4.21875 L 89.15625 -1.0625 C 89.15625 -0.351562 88.800781 0 88.09375 0 Z M 68.53125 -181.265625 C 67.476562 -181.222656 66.359375 -181.179688 65.171875 -181.140625 C 63.984375 -181.097656 62.460938 -181.050781 60.609375 -181 C 58.765625 -180.957031 57.84375 -180.234375 57.84375 -178.828125 L 57.84375 -98.796875 L 58.109375 -94.828125 C 58.378906 -92.972656 59.21875 -92.003906 60.625 -91.921875 L 74.09375 -91.125 C 98.832031 -91.125 113.753906 -99.929688 118.859375 -117.546875 C 120.535156 -123.085938 121.375 -129.425781 121.375 -136.5625 C 121.375 -150.476562 117.035156 -161.441406 108.359375 -169.453125 C 99.691406 -177.460938 88.625 -181.46875 75.15625 -181.46875 C 73.914062 -181.46875 72.765625 -181.441406 71.703125 -181.390625 C 70.648438 -181.347656 69.59375 -181.304688 68.53125 -181.265625 Z M 68.53125 -181.265625 "/></g></g></g><g fill="#000000" fill-opacity="1"><g transform="translate(66.390947, 254.692792)"><g><path d="M 112.121094 0 C 182.339844 0 228.988281 -44.519531 228.988281 -111.464844 C 228.988281 -178.085938 182.011719 -222.605469 111.628906 -222.605469 L 30.28125 -222.605469 L 30.28125 0 Z M 58.761719 -196.742188 L 110.8125 -196.742188 C 166.136719 -196.742188 199.691406 -162.535156 199.691406 -110.8125 C 199.691406 -59.253906 165.972656 -26.1875 111.464844 -26.1875 L 58.761719 -26.1875 Z M 58.761719 -196.742188 "/></g></g></g><g fill="#000000" fill-opacity="1"><g transform="translate(54.515167, 315.047408)"><g><path d="M 6.761719 0 C 11 0 13.824219 -2.667969 13.824219 -6.683594 C 13.824219 -10.675781 10.988281 -13.34375 6.730469 -13.34375 L 1.589844 -13.34375 L 1.589844 0 Z M 3.992188 -11.175781 L 6.660156 -11.175781 C 9.65625 -11.175781 11.363281 -9.371094 11.363281 -6.640625 C 11.363281 -3.894531 9.605469 -2.179688 6.683594 -2.179688 L 3.992188 -2.179688 Z M 3.992188 -11.175781 "/></g></g></g><g fill="#000000" fill-opacity="1"><g transform="translate(85.077012, 315.047408)"><g><path d="M 7.839844 0.285156 C 11.8125 0.285156 15.042969 -2.816406 15.042969 -6.691406 C 15.042969 -10.566406 11.8125 -13.65625 7.839844 -13.65625 C 3.867188 -13.65625 0.648438 -10.566406 0.648438 -6.691406 C 0.648438 -2.816406 3.867188 0.285156 7.839844 0.285156 Z M 7.839844 -1.960938 C 5.21875 -1.960938 3.089844 -3.972656 3.089844 -6.683594 C 3.089844 -9.398438 5.210938 -11.421875 7.839844 -11.421875 C 10.480469 -11.421875 12.609375 -9.410156 12.609375 -6.683594 C 12.609375 -3.972656 10.480469 -1.960938 7.839844 -1.960938 Z M 7.839844 -1.960938 "/></g></g></g><g fill="#000000" fill-opacity="1"><g transform="translate(116.845607, 315.047408)"><g><path d="M 4.03125 0 L 4.03125 -9.332031 L 11.304688 0 L 13.394531 0 L 13.394531 -13.34375 L 10.960938 -13.34375 L 10.960938 -4.003906 L 3.6875 -13.34375 L 1.589844 -13.34375 L 1.589844 0 Z M 4.03125 0 "/></g></g></g><g fill="#000000" fill-opacity="1"><g transform="translate(147.907812, 315.047408)"><g/></g></g><g fill="#000000" fill-opacity="1"><g transform="translate(168.884335, 315.047408)"><g><path d="M 4.03125 0 L 4.03125 -4.730469 L 6.320312 -4.730469 C 6.496094 -4.730469 6.660156 -4.730469 6.839844 -4.738281 L 9.476562 0 L 12.285156 0 L 9.261719 -5.113281 C 10.902344 -5.679688 11.980469 -7.113281 11.980469 -8.996094 C 11.980469 -11.597656 10.046875 -13.34375 7.347656 -13.34375 L 1.589844 -13.34375 L 1.589844 0 Z M 4.03125 -11.164062 L 7.25 -11.164062 C 8.546875 -11.164062 9.535156 -10.214844 9.535156 -8.996094 C 9.535156 -7.691406 8.554688 -6.800781 7.261719 -6.789062 L 4.03125 -6.789062 Z M 4.03125 -11.164062 "/></g></g></g><g fill="#000000" fill-opacity="1"><g transform="translate(197.670387, 315.047408)"><g><path d="M 7.839844 0.285156 C 11.8125 0.285156 15.042969 -2.816406 15.042969 -6.691406 C 15.042969 -10.566406 11.8125 -13.65625 7.839844 -13.65625 C 3.867188 -13.65625 0.648438 -10.566406 0.648438 -6.691406 C 0.648438 -2.816406 3.867188 0.285156 7.839844 0.285156 Z M 7.839844 -1.960938 C 5.21875 -1.960938 3.089844 -3.972656 3.089844 -6.683594 C 3.089844 -9.398438 5.210938 -11.421875 7.839844 -11.421875 C 10.480469 -11.421875 12.609375 -9.410156 12.609375 -6.683594 C 12.609375 -3.972656 10.480469 -1.960938 7.839844 -1.960938 Z M 7.839844 -1.960938 "/></g></g></g><g fill="#000000" fill-opacity="1"><g transform="translate(229.438989, 315.047408)"><g><path d="M 7.96875 0 C 10.117188 0 12.234375 -1.234375 12.234375 -3.875 C 12.234375 -5.375 11.125 -6.632812 9.78125 -7.0625 C 10.703125 -7.457031 11.46875 -8.554688 11.46875 -9.734375 C 11.46875 -11.960938 9.832031 -13.34375 7.40625 -13.34375 L 1.589844 -13.34375 L 1.589844 0 Z M 4.050781 -11.242188 L 7.300781 -11.242188 C 8.269531 -11.242188 9.007812 -10.5 9.007812 -9.515625 C 9.007812 -8.527344 8.269531 -7.769531 7.289062 -7.769531 L 4.050781 -7.769531 Z M 4.050781 -5.9375 L 7.769531 -5.9375 C 8.890625 -5.9375 9.734375 -5.09375 9.734375 -4.0625 C 9.734375 -2.914062 8.890625 -2.109375 7.75 -2.109375 L 4.050781 -2.109375 Z M 4.050781 -5.9375 "/></g></g></g><g fill="#000000" fill-opacity="1"><g transform="translate(258.382017, 315.047408)"><g><path d="M 7.96875 0 C 10.117188 0 12.234375 -1.234375 12.234375 -3.875 C 12.234375 -5.375 11.125 -6.632812 9.78125 -7.0625 C 10.703125 -7.457031 11.46875 -8.554688 11.46875 -9.734375 C 11.46875 -11.960938 9.832031 -13.34375 7.40625 -13.34375 L 1.589844 -13.34375 L 1.589844 0 Z M 4.050781 -11.242188 L 7.300781 -11.242188 C 8.269531 -11.242188 9.007812 -10.5 9.007812 -9.515625 C 9.007812 -8.527344 8.269531 -7.769531 7.289062 -7.769531 L 4.050781 -7.769531 Z M 4.050781 -5.9375 L 7.769531 -5.9375 C 8.890625 -5.9375 9.734375 -5.09375 9.734375 -4.0625 C 9.734375 -2.914062 8.890625 -2.109375 7.75 -2.109375 L 4.050781 -2.109375 Z M 4.050781 -5.9375 "/></g></g></g><g fill="#000000" fill-opacity="1"><g transform="translate(287.325044, 315.047408)"><g><path d="M 4.03125 0 L 4.03125 -13.34375 L 1.589844 -13.34375 L 1.589844 0 Z M 4.03125 0 "/></g></g></g><g fill="#000000" fill-opacity="1"><g transform="translate(309.017763, 315.047408)"><g><path d="M 10.820312 0 L 10.820312 -2.1875 L 4.03125 -2.1875 L 4.03125 -5.75 L 9.820312 -5.75 L 9.820312 -7.808594 L 4.03125 -7.808594 L 4.03125 -11.15625 L 10.734375 -11.15625 L 10.734375 -13.34375 L 1.589844 -13.34375 L 1.589844 0 Z M 10.820312 0 "/></g></g></g><g fill="#000000" fill-opacity="1"><g transform="translate(81.253265, 336.998086)"><g><path d="M 2.808594 0 L 2.808594 -2.96875 L 5.050781 -2.96875 C 6.917969 -2.96875 8.253906 -4.253906 8.253906 -6.167969 C 8.253906 -7.980469 6.90625 -9.296875 5.023438 -9.296875 L 1.109375 -9.296875 L 1.109375 0 Z M 2.808594 -7.78125 L 4.957031 -7.78125 C 5.859375 -7.78125 6.550781 -7.015625 6.550781 -6.167969 C 6.550781 -5.210938 5.859375 -4.484375 4.96875 -4.484375 L 2.808594 -4.484375 Z M 2.808594 -7.78125 "/></g></g></g><g fill="#000000" fill-opacity="1"><g transform="translate(100.913575, 336.998086)"><g><path d="M 2.808594 0 L 2.808594 -3.925781 L 7.5 -3.925781 L 7.5 0 L 9.210938 0 L 9.210938 -9.296875 L 7.5 -9.296875 L 7.5 -5.441406 L 2.808594 -5.441406 L 2.808594 -9.296875 L 1.109375 -9.296875 L 1.109375 0 Z M 2.808594 0 "/></g></g></g><g fill="#000000" fill-opacity="1"><g transform="translate(122.4252, 336.998086)"><g><path d="M 5.464844 0.199219 C 8.230469 0.199219 10.480469 -1.960938 10.480469 -4.664062 C 10.480469 -7.363281 8.230469 -9.515625 5.464844 -9.515625 C 2.695312 -9.515625 0.453125 -7.363281 0.453125 -4.664062 C 0.453125 -1.960938 2.695312 0.199219 5.464844 0.199219 Z M 5.464844 -1.367188 C 3.636719 -1.367188 2.152344 -2.769531 2.152344 -4.65625 C 2.152344 -6.550781 3.628906 -7.957031 5.464844 -7.957031 C 7.300781 -7.957031 8.785156 -6.558594 8.785156 -4.65625 C 8.785156 -2.769531 7.300781 -1.367188 5.464844 -1.367188 Z M 5.464844 -1.367188 "/></g></g></g><g fill="#000000" fill-opacity="1"><g transform="translate(144.55165, 336.998086)"><g><path d="M 4.757812 0 L 4.757812 -7.78125 L 7.527344 -7.78125 L 7.527344 -9.296875 L 0.292969 -9.296875 L 0.292969 -7.78125 L 3.0625 -7.78125 L 3.0625 0 Z M 4.757812 0 "/></g></g></g><g fill="#000000" fill-opacity="1"><g transform="translate(163.56981, 336.998086)"><g><path d="M 5.464844 0.199219 C 8.230469 0.199219 10.480469 -1.960938 10.480469 -4.664062 C 10.480469 -7.363281 8.230469 -9.515625 5.464844 -9.515625 C 2.695312 -9.515625 0.453125 -7.363281 0.453125 -4.664062 C 0.453125 -1.960938 2.695312 0.199219 5.464844 0.199219 Z M 5.464844 -1.367188 C 3.636719 -1.367188 2.152344 -2.769531 2.152344 -4.65625 C 2.152344 -6.550781 3.628906 -7.957031 5.464844 -7.957031 C 7.300781 -7.957031 8.785156 -6.558594 8.785156 -4.65625 C 8.785156 -2.769531 7.300781 -1.367188 5.464844 -1.367188 Z M 5.464844 -1.367188 "/></g></g></g><g fill="#000000" fill-opacity="1"><g transform="translate(185.696262, 336.998086)"><g><path d="M 5.359375 0.199219 C 8.402344 0.199219 10.152344 -1.957031 10.132812 -5.003906 L 5.277344 -5.003906 L 5.277344 -3.582031 L 8.285156 -3.582031 C 8.027344 -2.285156 7.007812 -1.367188 5.347656 -1.367188 C 3.589844 -1.367188 2.152344 -2.640625 2.152344 -4.65625 C 2.152344 -6.640625 3.589844 -7.957031 5.347656 -7.957031 C 6.667969 -7.957031 7.707031 -7.316406 8.191406 -6.230469 L 9.921875 -6.230469 C 9.484375 -8.320312 7.355469 -9.515625 5.386719 -9.515625 C 2.652344 -9.515625 0.457031 -7.363281 0.457031 -4.65625 C 0.457031 -1.96875 2.652344 0.199219 5.359375 0.199219 Z M 5.359375 0.199219 "/></g></g></g><g fill="#000000" fill-opacity="1"><g transform="translate(207.481138, 336.998086)"><g><path d="M 2.808594 0 L 2.808594 -3.296875 L 4.402344 -3.296875 C 4.527344 -3.296875 4.640625 -3.296875 4.765625 -3.300781 L 6.605469 0 L 8.558594 0 L 6.453125 -3.5625 C 7.597656 -3.957031 8.347656 -4.957031 8.347656 -6.269531 C 8.347656 -8.082031 7 -9.296875 5.121094 -9.296875 L 1.109375 -9.296875 L 1.109375 0 Z M 2.808594 -7.78125 L 5.050781 -7.78125 C 5.957031 -7.78125 6.644531 -7.117188 6.644531 -6.269531 C 6.644531 -5.359375 5.960938 -4.738281 5.058594 -4.730469 L 2.808594 -4.730469 Z M 2.808594 -7.78125 "/></g></g></g><g fill="#000000" fill-opacity="1"><g transform="translate(227.530846, 336.998086)"><g><path d="M 9.414062 0 L 5.546875 -9.304688 L 3.929688 -9.304688 L 0.0625 0 L 1.859375 0 L 2.597656 -1.796875 L 6.878906 -1.796875 L 7.617188 0 Z M 4.675781 -6.886719 L 4.730469 -7.109375 L 4.75 -7.109375 L 4.792969 -6.886719 L 6.296875 -3.21875 L 3.179688 -3.21875 Z M 4.675781 -6.886719 "/></g></g></g><g fill="#000000" fill-opacity="1"><g transform="translate(248.209042, 336.998086)"><g><path d="M 2.808594 0 L 2.808594 -2.96875 L 5.050781 -2.96875 C 6.917969 -2.96875 8.253906 -4.253906 8.253906 -6.167969 C 8.253906 -7.980469 6.90625 -9.296875 5.023438 -9.296875 L 1.109375 -9.296875 L 1.109375 0 Z M 2.808594 -7.78125 L 4.957031 -7.78125 C 5.859375 -7.78125 6.550781 -7.015625 6.550781 -6.167969 C 6.550781 -5.210938 5.859375 -4.484375 4.96875 -4.484375 L 2.808594 -4.484375 Z M 2.808594 -7.78125 "/></g></g></g><g fill="#000000" fill-opacity="1"><g transform="translate(267.869354, 336.998086)"><g><path d="M 2.808594 0 L 2.808594 -3.925781 L 7.5 -3.925781 L 7.5 0 L 9.210938 0 L 9.210938 -9.296875 L 7.5 -9.296875 L 7.5 -5.441406 L 2.808594 -5.441406 L 2.808594 -9.296875 L 1.109375 -9.296875 L 1.109375 0 Z M 2.808594 0 "/></g></g></g><g fill="#000000" fill-opacity="1"><g transform="translate(289.38098, 336.998086)"><g><path d="M 5.464844 0 L 5.464844 -3.546875 L 9.132812 -9.296875 L 7.132812 -9.296875 L 4.621094 -5.050781 L 4.613281 -5.050781 L 2.085938 -9.296875 L 0.101562 -9.296875 L 3.761719 -3.535156 L 3.761719 0 Z M 5.464844 0 "/></g></g></g></svg>